<svg xmlns="http://www.w3.org/2000/svg" width="18.295" height="18.293" viewBox="0 0 18.295 18.293">
  <g id="fast-forward-double-right-arrows-symbol" transform="translate(0.001 -0.035)">
    <g id="_x35__11_" transform="translate(-0.001 0.035)">
      <g id="Group_23" data-name="Group 23" transform="translate(0 0)">
        <path id="Path_641" data-name="Path 641" d="M17.844,8.1,10.234.485A1.537,1.537,0,0,0,8.06,2.659l6.522,6.522L8.06,15.7a1.537,1.537,0,0,0,2.174,2.174l7.61-7.61A1.536,1.536,0,0,0,17.844,8.1Zm-9.15-.461L2.652,1.266a1.5,1.5,0,0,0-2.2,0,1.7,1.7,0,0,0,0,2.316L5.4,8.792.455,14a1.7,1.7,0,0,0,0,2.316,1.5,1.5,0,0,0,2.2,0L8.694,9.95A1.7,1.7,0,0,0,8.694,7.634Z" transform="translate(0.001 -0.035)" fill="#ebebeb"/>
      </g>
    </g>
  </g>
</svg>
