<svg xmlns="http://www.w3.org/2000/svg" width="71" height="71" viewBox="0 0 71 71">
  <g id="Group_2993" data-name="Group 2993" transform="translate(-1103 -993)">
    <g id="Path_9458" data-name="Path 9458" transform="translate(1103 993)" stroke-dasharray="10 80">
      <path d="M12,0H59A12,12,0,0,1,71,12V59A12,12,0,0,1,59,71H12A12,12,0,0,1,0,59V12A12,12,0,0,1,12,0Z" stroke="none"/>
      <path d="M 12 0 L 22 0 L 22 4 L 12 4 L 12 0 C 12 0 12 0 12 0 Z M 67 36.14825057983398 L 71 36.14825057983398 C 71 36.14825057983398 71 46.14825057983398 71 46.14825057983398 L 67 46.14825057983398 L 67 36.14825057983398 Z M 5.530899047851562 63.7078857421875 C 6.861587524414062 65.53168487548828 8.903213500976562 66.71479034423828 11.13227462768555 66.95382690429688 L 10.70577621459961 70.93102264404297 C 10.02339172363281 70.85784149169922 9.358314514160156 70.72752380371094 8.715057373046875 70.54483032226562 C 8.711940765380859 70.54393005371094 8.709152221679688 70.54315185546875 8.705989837646484 70.54225158691406 C 8.705989837646484 70.54225158691406 8.705909729003906 70.54222869873047 8.705909729003906 70.54222869873047 C 8.702945709228516 70.5413818359375 8.700061798095703 70.54056549072266 8.697097778320312 70.53971862792969 C 8.697097778320312 70.53971862792969 8.696994781494141 70.53968811035156 8.696994781494141 70.53968811035156 C 8.667350769042969 70.53121948242188 8.638046264648438 70.52272033691406 8.608497619628906 70.51403045654297 C 8.605361938476562 70.51310729980469 8.602951049804688 70.51239776611328 8.599800109863281 70.51146697998047 C 8.596630096435547 70.51054382324219 8.594215393066406 70.50982666015625 8.591064453125 70.50888824462891 C 8.587913513183594 70.50796508789062 8.585369110107422 70.5072021484375 8.582218170166016 70.50627136230469 C 8.579235076904297 70.50539398193359 8.576526641845703 70.50457763671875 8.57354736328125 70.50369262695312 C 8.570388793945312 70.50274658203125 8.567604064941406 70.50193023681641 8.564434051513672 70.50098419189453 C 8.561408996582031 70.50009155273438 8.558425903320312 70.49919128417969 8.555450439453125 70.49829864501953 C 8.552734375 70.49747467041016 8.549095153808594 70.49639129638672 8.546314239501953 70.49555969238281 C 8.546314239501953 70.49555969238281 8.546230316162109 70.49553680419922 8.546230316162109 70.49553680419922 C 8.525592803955078 70.48934173583984 8.505306243896484 70.48320007324219 8.484718322753906 70.47689819335938 C 8.481903076171875 70.47604370117188 8.479076385498047 70.47517395019531 8.476310729980469 70.47432708740234 C 8.473289489746094 70.47341156005859 8.470996856689453 70.47269439697266 8.468029022216797 70.47177886962891 C 8.465038299560547 70.47086334228516 8.462287902832031 70.47001647949219 8.459300994873047 70.46909332275391 C 8.456325531005859 70.46817016601562 8.453567504882812 70.46732330322266 8.450580596923828 70.46640014648438 C 8.447399139404297 70.46541595458984 8.444759368896484 70.464599609375 8.441566467285156 70.46360778808594 C 8.438388824462891 70.46262359619141 8.435836791992188 70.46183013916016 8.432651519775391 70.46083831787109 C 8.429847717285156 70.45996856689453 8.426395416259766 70.45889282226562 8.423580169677734 70.45801544189453 C 8.420967102050781 70.45719909667969 8.417167663574219 70.45601654052734 8.414543151855469 70.45519256591797 C 8.411552429199219 70.45426177978516 8.408306121826172 70.4532470703125 8.405326843261719 70.45230865478516 C 8.405128479003906 70.45224761962891 8.404544830322266 70.45206451416016 8.404346466064453 70.45200347900391 C 8.390052795410156 70.44751739501953 8.375751495361328 70.44300079345703 8.361476898193359 70.43846893310547 C 8.358737945556641 70.43758392333984 8.356464385986328 70.43687438964844 8.353710174560547 70.43599700927734 C 8.351089477539062 70.43516540527344 8.347949981689453 70.43415832519531 8.345371246337891 70.43333435058594 C 8.342388153076172 70.43238830566406 8.339458465576172 70.43144226074219 8.336479187011719 70.43048858642578 C 8.3338623046875 70.42964935302734 8.330455780029297 70.42855834960938 8.327850341796875 70.42772674560547 C 8.324672698974609 70.42670440673828 8.322002410888672 70.42584228515625 8.318832397460938 70.42482757568359 C 8.315662384033203 70.42380523681641 8.313198089599609 70.42301177978516 8.310035705566406 70.42198944091797 C 8.307228088378906 70.42108154296875 8.303867340087891 70.41999816894531 8.301059722900391 70.41909027099609 C 8.298065185546875 70.41811370849609 8.295131683349609 70.41716766357422 8.292129516601562 70.41619110107422 C 8.289134979248047 70.41522216796875 8.285865783691406 70.41415405273438 8.282871246337891 70.41318511962891 C 8.279888153076172 70.41221618652344 8.276874542236328 70.41123199462891 8.273910522460938 70.41026306152344 C 8.271125793457031 70.40935516357422 8.267543792724609 70.40818023681641 8.264774322509766 70.40727996826172 C 8.264774322509766 70.40727996826172 8.264667510986328 70.40724182128906 8.264667510986328 70.40724182128906 C 8.253360748291016 70.40354156494141 8.241626739501953 70.39968109130859 8.230339050292969 70.39595031738281 C 8.227962493896484 70.39516448974609 8.225688934326172 70.39441680908203 8.223316192626953 70.39362335205078 C 8.220149993896484 70.392578125 8.217411041259766 70.39167022705078 8.214252471923828 70.39061737060547 C 8.211460113525391 70.38969421386719 8.208477020263672 70.38870239257812 8.205692291259766 70.38777160644531 C 8.202701568603516 70.38677978515625 8.199783325195312 70.38580322265625 8.196800231933594 70.38480377197266 C 8.193817138671875 70.38381195068359 8.191051483154297 70.38288879394531 8.188064575195312 70.38188934326172 C 8.185249328613281 70.38094329833984 8.181938171386719 70.37983703613281 8.179126739501953 70.37889099121094 C 8.176136016845703 70.37789154052734 8.173213958740234 70.37689971923828 8.170223236083984 70.37590026855469 C 8.16705322265625 70.37483215332031 8.164417266845703 70.37394714355469 8.161239624023438 70.37287139892578 C 8.158073425292969 70.37180328369141 8.155548095703125 70.37094879150391 8.152374267578125 70.369873046875 C 8.149360656738281 70.36885833740234 8.146282196044922 70.36781311035156 8.143276214599609 70.36679077148438 C 8.140090942382812 70.36571502685547 8.137413024902344 70.36480712890625 8.134243011474609 70.36372375488281 C 8.131275177001953 70.36271667480469 8.128276824951172 70.3616943359375 8.125293731689453 70.36067962646484 C 8.124126434326172 70.36028289794922 8.122787475585938 70.35982513427734 8.121620178222656 70.35942840576172 C 8.117271423339844 70.35794067382812 8.113147735595703 70.35652923583984 8.108798980712891 70.35504150390625 C 8.106601715087891 70.35428619384766 8.104557037353516 70.35358428955078 8.102359771728516 70.35282897949219 C 8.099189758300781 70.35174560546875 8.096836090087891 70.35093688964844 8.093662261962891 70.34984588623047 C 8.090854644775391 70.348876953125 8.087921142578125 70.34786224365234 8.085113525390625 70.34690093994141 C 8.082118988037109 70.34586334228516 8.078933715820312 70.34476470947266 8.075923919677734 70.34372711181641 C 8.072772979736328 70.34262847900391 8.069938659667969 70.34165191650391 8.066768646240234 70.34055328369141 C 8.063594818115234 70.33945465087891 8.060993194580078 70.33854675292969 8.057834625244141 70.33744812011719 C 8.055034637451172 70.33647918701172 8.051944732666016 70.33540344238281 8.049144744873047 70.33442687988281 C 8.046146392822266 70.33338165283203 8.043003082275391 70.33228302001953 8.040008544921875 70.33123779296875 C 8.036849975585938 70.33013153076172 8.034339904785156 70.32925415039062 8.031169891357422 70.32814788818359 C 8.028182983398438 70.32709503173828 8.025180816650391 70.32604217529297 8.022186279296875 70.32499694824219 C 8.019367218017578 70.32400512695312 8.016269683837891 70.32291412353516 8.013439178466797 70.32192230224609 C 8.010429382324219 70.32085418701172 8.007282257080078 70.31974792480469 8.004268646240234 70.31868743896484 C 8.001060485839844 70.31755065917969 7.998561859130859 70.31667327880859 7.995357513427734 70.31553649902344 C 7.992511749267578 70.31452941894531 7.989101409912109 70.31332397460938 7.986259460449219 70.31230926513672 C 7.983169555664062 70.31121826171875 7.980350494384766 70.31021118164062 7.977260589599609 70.30911254882812 C 7.974235534667969 70.30803680419922 7.971351623535156 70.3070068359375 7.968311309814453 70.30592346191406 C 7.965469360351562 70.30490875244141 7.962024688720703 70.30368041992188 7.959182739257812 70.30266571044922 C 7.9561767578125 70.30158996582031 7.953330993652344 70.30057525634766 7.950325012207031 70.29949188232422 C 7.947299957275391 70.29841613769531 7.944217681884766 70.29730987548828 7.941215515136719 70.29622650146484 C 7.938404083251953 70.29521179199219 7.935218811035156 70.2940673828125 7.932407379150391 70.29306030273438 C 7.929603576660156 70.29204559326172 7.926109313964844 70.29078674316406 7.923294067382812 70.28977203369141 C 7.920116424560547 70.28862762451172 7.917579650878906 70.28770446777344 7.914402008056641 70.28655242919922 C 7.911407470703125 70.28546905517578 7.908111572265625 70.28427124023438 7.905101776123047 70.28318023681641 C 7.902107238769531 70.28209686279297 7.898960113525391 70.28095245361328 7.895957946777344 70.27986145019531 C 7.893119812011719 70.27882385253906 7.889354705810547 70.27745056152344 7.886520385742188 70.27642059326172 C 7.883152008056641 70.27518463134766 7.880352020263672 70.274169921875 7.876964569091797 70.27292633056641 C 7.873538970947266 70.27168273925781 7.870079040527344 70.27040863037109 7.866668701171875 70.26915740966797 C 7.866668701171875 70.26915740966797 7.866127014160156 70.26895904541016 7.866127014160156 70.26895904541016 C 7.856903076171875 70.26557159423828 7.848007202148438 70.26229858398438 7.838794708251953 70.25888824462891 C 7.836112976074219 70.25790405273438 7.832492828369141 70.25656127929688 7.829830169677734 70.25556945800781 C 7.826797485351562 70.25444793701172 7.823966979980469 70.25339508056641 7.820949554443359 70.25227355957031 C 7.817962646484375 70.25116729736328 7.814773559570312 70.24998474121094 7.811786651611328 70.24887084960938 C 7.808963775634766 70.24781799316406 7.805625915527344 70.24657440185547 7.802799224853516 70.24551391601562 C 7.799613952636719 70.24432373046875 7.797008514404297 70.24335479736328 7.793827056884766 70.24216461181641 C 7.791011810302734 70.24110412597656 7.787681579589844 70.23986053466797 7.784858703613281 70.23880004882812 C 7.781684875488281 70.23760986328125 7.778984069824219 70.23659515380859 7.775810241699219 70.23540496826172 C 7.772628784179688 70.23420715332031 7.770015716552734 70.23321533203125 7.766834259033203 70.23201751708984 C 7.764003753662109 70.23095703125 7.760154724121094 70.22949981689453 7.757347106933594 70.22843933105469 C 7.754131317138672 70.22722625732422 7.750949859619141 70.22602081298828 7.747753143310547 70.22480773925781 C 7.747394561767578 70.22467041015625 7.746662139892578 70.22439575195312 7.746307373046875 70.22425842285156 C 7.73406982421875 70.21961975097656 7.722133636474609 70.21507263183594 7.709918975830078 70.21039581298828 C 7.709918975830078 70.21039581298828 7.709873199462891 70.21038055419922 7.709873199462891 70.21038055419922 C 7.706821441650391 70.20920562744141 7.7039794921875 70.20812225341797 7.700927734375 70.20694732666016 C 7.700572967529297 70.20680999755859 7.700340270996094 70.20671844482422 7.699981689453125 70.20658111572266 C 7.697311401367188 70.20555877685547 7.694881439208984 70.20462036132812 7.692211151123047 70.20359802246094 C 7.688831329345703 70.20230102539062 7.686569213867188 70.20142364501953 7.683212280273438 70.20012664794922 C 7.680412292480469 70.19905090332031 7.676979064941406 70.19772338867188 7.674163818359375 70.19664001464844 C 7.671157836914062 70.19548034667969 7.668087005615234 70.19429016113281 7.665092468261719 70.19312286376953 C 7.662094116210938 70.19196319580078 7.659214019775391 70.19084167480469 7.656215667724609 70.18968200683594 C 7.653228759765625 70.18851470947266 7.650157928466797 70.18732452392578 7.647159576416016 70.1861572265625 C 7.6441650390625 70.18498992919922 7.641017913818359 70.18376922607422 7.638027191162109 70.18259429931641 C 7.634830474853516 70.18135070800781 7.631954193115234 70.18022155761719 7.628768920898438 70.17897796630859 C 7.625930786132812 70.17787170410156 7.622501373291016 70.17652893066406 7.619674682617188 70.1754150390625 C 7.618965148925781 70.17514038085938 7.618862152099609 70.17509460449219 7.618152618408203 70.17481994628906 C 7.603134155273438 70.16892242431641 7.587913513183594 70.16291809082031 7.572921752929688 70.15695953369141 C 7.572566986083984 70.15682220458984 7.573055267333984 70.15701293945312 7.572704315185547 70.15687561035156 C 7.569667816162109 70.15567016601562 7.567085266113281 70.15464782714844 7.564052581787109 70.15343475341797 C 7.563697814941406 70.15329742431641 7.563335418701172 70.15315246582031 7.562984466552734 70.15300750732422 C 7.560325622558594 70.15195465087891 7.557758331298828 70.15093231201172 7.555103302001953 70.14987182617188 C 7.552288055419922 70.14875030517578 7.549057006835938 70.14745330810547 7.546241760253906 70.14633178710938 C 7.543067932128906 70.14505767822266 7.540309906005859 70.14395904541016 7.537139892578125 70.14268493652344 C 7.536785125732422 70.14253997802734 7.536087036132812 70.14226531982422 7.535732269287109 70.14212036132812 C 7.5330810546875 70.14105987548828 7.530826568603516 70.14015197753906 7.528175354003906 70.13908386230469 C 7.527469635009766 70.13880157470703 7.527359008789062 70.13876342773438 7.526653289794922 70.13847351074219 C 7.524002075195312 70.13741302490234 7.521625518798828 70.13645172119141 7.518974304199219 70.13538360595703 C 7.516170501708984 70.13425445556641 7.512889862060547 70.1329345703125 7.510074615478516 70.13179779052734 C 7.509719848632812 70.13165283203125 7.509090423583984 70.13140106201172 7.508735656738281 70.13125610351562 C 7.506088256835938 70.13018798828125 7.503074645996094 70.12896728515625 7.50042724609375 70.12789916992188 C 7.50042724609375 70.12789916992188 7.500026702880859 70.12773132324219 7.500026702880859 70.12773132324219 C 7.472789764404297 70.11670684814453 7.445968627929688 70.10573577880859 7.418834686279297 70.09452056884766 C 7.418834686279297 70.09452056884766 7.41815185546875 70.09423828125 7.41815185546875 70.09423828125 C 7.415512084960938 70.09314727783203 7.412506103515625 70.09190368652344 7.409870147705078 70.09081268310547 C 7.409519195556641 70.09066772460938 7.409450531005859 70.09063720703125 7.409099578857422 70.09049224853516 C 7.406459808349609 70.08940124511719 7.403514862060547 70.08817291259766 7.40087890625 70.08708190917969 C 7.400527954101562 70.08693695068359 7.400497436523438 70.08692169189453 7.400146484375 70.08677673339844 C 7.397323608398438 70.08560180664062 7.394325256347656 70.08435821533203 7.391502380371094 70.08318328857422 C 7.391502380371094 70.08318328857422 7.391407012939453 70.08314514160156 7.391407012939453 70.08314514160156 C 7.355266571044922 70.06809997558594 7.319286346435547 70.05290985107422 7.2833251953125 70.03752136230469 C 7.2833251953125 70.03752136230469 7.283271789550781 70.03749847412109 7.283271789550781 70.03749847412109 C 7.2802734375 70.03621673583984 7.277393341064453 70.03498840332031 7.274398803710938 70.03369903564453 C 7.274398803710938 70.03369903564453 7.27423095703125 70.03363037109375 7.27423095703125 70.03363037109375 C 7.268238067626953 70.03105926513672 7.26239013671875 70.02854156494141 7.256404876708984 70.02596282958984 C 7.256404876708984 70.02596282958984 7.256317138671875 70.02593231201172 7.256317138671875 70.02593231201172 C 7.220405578613281 70.01045989990234 7.184673309326172 69.99485778808594 7.148941040039062 69.97904205322266 C 7.148941040039062 69.97904205322266 7.148826599121094 69.97899627685547 7.148826599121094 69.97899627685547 C 5.684043884277344 69.33081817626953 4.373146057128906 68.39794158935547 3.2864990234375 67.25079345703125 C 3.286239624023438 67.25051879882812 3.286170959472656 67.25044250488281 3.285911560058594 67.25017547607422 C 3.283981323242188 67.24813079833984 3.281829833984375 67.24585723876953 3.279899597167969 67.24382019042969 C 3.279640197753906 67.24354553222656 3.279632568359375 67.24353790283203 3.279373168945312 67.24326324462891 C 3.277442932128906 67.24121856689453 3.275215148925781 67.23886108398438 3.273284912109375 67.23682403564453 C 3.273025512695312 67.23654937744141 3.273063659667969 67.23658752441406 3.272804260253906 67.23631286621094 C 3.268531799316406 67.23178863525391 3.264122009277344 67.22710418701172 3.259857177734375 67.22257232666016 C 3.259597778320312 67.22229766845703 3.260032653808594 67.22276306152344 3.259780883789062 67.22248840332031 C 3.237899780273438 67.19924163818359 3.215957641601562 67.17573547363281 3.194267272949219 67.15232086181641 C 3.194007873535156 67.15204620361328 3.1939697265625 67.15200805664062 3.193717956542969 67.1517333984375 C 3.191810607910156 67.14966583251953 3.189689636230469 67.14738464355469 3.187782287597656 67.14531707763672 C 3.187530517578125 67.14504241943359 3.187408447265625 67.14491271972656 3.187156677246094 67.14463806152344 C 3.185249328613281 67.142578125 3.183372497558594 67.14054870605469 3.181465148925781 67.13848114013672 C 3.18121337890625 67.13820648193359 3.180778503417969 67.13773345947266 3.180519104003906 67.13745880126953 C 3.178619384765625 67.13539123535156 3.176643371582031 67.13325500488281 3.17474365234375 67.13119506835938 C 3.174484252929688 67.13091278076172 3.174468994140625 67.13089752197266 3.174217224121094 67.13062286376953 C 3.172172546386719 67.12841033935547 3.170097351074219 67.12615203857422 3.168060302734375 67.12393951416016 C 3.167808532714844 67.12366485595703 3.168067932128906 67.12394714355469 3.167816162109375 67.12367248535156 C 3.148239135742188 67.10240173339844 3.128898620605469 67.08123779296875 3.109474182128906 67.05982208251953 C 3.109222412109375 67.05953979492188 3.109458923339844 67.05979919433594 3.109207153320312 67.05952453613281 C 3.107177734375 67.05728912353516 3.105323791503906 67.05524444580078 3.103302001953125 67.05300903320312 C 3.103050231933594 67.052734375 3.102561950683594 67.05219268798828 3.102310180664062 67.05191802978516 C 3.100425720214844 67.04983520507812 3.098808288574219 67.04804229736328 3.096923828125 67.04595947265625 C 3.096672058105469 67.04568481445312 3.096176147460938 67.04513549804688 3.095924377441406 67.04486083984375 C 3.094039916992188 67.04277801513672 3.092399597167969 67.04096221923828 3.09051513671875 67.03887176513672 C 3.090263366699219 67.03859710693359 3.089752197265625 67.03802490234375 3.089508056640625 67.03775024414062 C 3.087623596191406 67.03565979003906 3.086021423339844 67.03388977050781 3.084136962890625 67.03179931640625 C 3.083885192871094 67.03151702880859 3.0833740234375 67.03095245361328 3.083122253417969 67.03067779541016 C 3.081375122070312 67.02873229980469 3.079635620117188 67.02680206298828 3.077888488769531 67.02486419677734 C 3.077392578125 67.02430725097656 3.077156066894531 67.0240478515625 3.076652526855469 67.02349090576172 C 3.074775695800781 67.02140045166016 3.072845458984375 67.01925659179688 3.070968627929688 67.01716613769531 C 3.070968627929688 67.01716613769531 3.070533752441406 67.01667785644531 3.070533752441406 67.01667785644531 C 3.055503845214844 66.99995422363281 3.040779113769531 66.98347473144531 3.025848388671875 66.96665954589844 C 3.025848388671875 66.96665954589844 3.025291442871094 66.96603393554688 3.025291442871094 66.96603393554688 C 3.023292541503906 66.96378326416016 3.021438598632812 66.96170043945312 3.019439697265625 66.95944976806641 C 3.019195556640625 66.95916748046875 3.019203186035156 66.95918273925781 3.018959045410156 66.95890045166016 C 3.01708984375 66.95679473876953 3.015213012695312 66.95468139648438 3.013351440429688 66.95257568359375 C 3.012855529785156 66.95201110839844 3.0126953125 66.95183563232422 3.012199401855469 66.95127105712891 C 3.010467529296875 66.94931793212891 3.008811950683594 66.94744873046875 3.007080078125 66.94548797607422 C 3.006584167480469 66.94493103027344 3.006317138671875 66.94462585449219 3.005821228027344 66.94406127929688 C 3.004226684570312 66.9422607421875 3.002456665039062 66.94025421142578 3.000862121582031 66.93845367431641 C 3.0003662109375 66.93788909912109 2.999984741210938 66.93745422363281 2.999488830566406 66.9368896484375 C 2.997894287109375 66.93508148193359 2.996070861816406 66.93302154541016 2.994476318359375 66.93121337890625 C 2.994232177734375 66.93093109130859 2.993492126464844 66.93009185791016 2.993240356445312 66.9298095703125 C 2.99151611328125 66.9278564453125 2.989860534667969 66.92597198486328 2.988136291503906 66.92401123046875 C 2.987640380859375 66.92345428466797 2.987495422363281 66.92328643798828 2.98699951171875 66.92272186279297 C 2.985145568847656 66.92060852050781 2.983451843261719 66.91868591308594 2.981597900390625 66.91657257080078 C 2.981346130371094 66.91629028320312 2.981048583984375 66.91594696044922 2.980796813964844 66.91566467285156 C 2.97894287109375 66.91355895996094 2.976837158203125 66.91115570068359 2.974983215332031 66.90904235839844 C 2.974739074707031 66.90876007080078 2.974822998046875 66.90885925292969 2.974578857421875 66.90857696533203 C 2.961868286132812 66.89408111572266 2.949348449707031 66.87973785400391 2.93670654296875 66.86518859863281 C 2.93670654296875 66.86518859863281 2.936416625976562 66.86485290527344 2.936416625976562 66.86485290527344 C 2.934440612792969 66.86257934570312 2.932426452636719 66.86026000976562 2.930458068847656 66.85798645019531 C 2.930213928222656 66.85769653320312 2.930259704589844 66.85775756835938 2.930015563964844 66.85747528076172 C 2.928176879882812 66.85535430908203 2.926193237304688 66.85305786132812 2.924346923828125 66.85093688964844 C 2.924102783203125 66.85064697265625 2.923660278320312 66.85013580322266 2.923416137695312 66.849853515625 C 2.921577453613281 66.84772491455078 2.91998291015625 66.84588623046875 2.918144226074219 66.84376525878906 C 2.917900085449219 66.84347534179688 2.917404174804688 66.84291076660156 2.917160034179688 66.84262847900391 C 2.915458679199219 66.84065246582031 2.9136962890625 66.83861541748047 2.911994934082031 66.83663940429688 C 2.9114990234375 66.83607482910156 2.911308288574219 66.83584594726562 2.910812377929688 66.83527374267578 C 2.909111022949219 66.83329772949219 2.907424926757812 66.83134460449219 2.905723571777344 66.82936859130859 C 2.905479431152344 66.82908630371094 2.9049072265625 66.82843017578125 2.9046630859375 66.82814025878906 C 2.902961730957031 66.82616424560547 2.901283264160156 66.82421875 2.899581909179688 66.82224273681641 C 2.899093627929688 66.82167053222656 2.898857116699219 66.82139587402344 2.898368835449219 66.82082366943359 C 2.896530151367188 66.81869506835938 2.894882202148438 66.8167724609375 2.893051147460938 66.81463623046875 C 2.892807006835938 66.81435394287109 2.892578125 66.8140869140625 2.892333984375 66.81380462646484 C 2.890373229980469 66.81151580810547 2.888626098632812 66.80948638916016 2.886665344238281 66.80720520019531 C 2.886421203613281 66.80691528320312 2.886367797851562 66.80684661865234 2.886123657226562 66.80656433105469 C 2.873703002929688 66.79207611083984 2.861259460449219 66.77748870849609 2.848907470703125 66.76294708251953 C 2.848663330078125 66.76266479492188 2.848365783691406 66.76231384277344 2.848121643066406 66.76203155517578 C 2.846305847167969 66.7598876953125 2.844497680664062 66.75775146484375 2.842674255371094 66.75560760498047 C 2.842430114746094 66.75531768798828 2.842239379882812 66.75509643554688 2.842002868652344 66.75480651855469 C 2.840179443359375 66.75266265869141 2.838356018066406 66.75051116943359 2.836540222167969 66.74836730957031 C 2.836296081542969 66.74807739257812 2.83599853515625 66.74772644042969 2.83575439453125 66.7474365234375 C 2.833938598632812 66.74529266357422 2.832160949707031 66.74318695068359 2.830345153808594 66.74103546142578 C 2.830101013183594 66.74075317382812 2.82977294921875 66.74036407470703 2.829536437988281 66.74007415771484 C 2.827850341796875 66.73808288574219 2.826202392578125 66.73613739013672 2.82452392578125 66.73413848876953 C 2.82403564453125 66.73356628417969 2.823554992675781 66.73299407958984 2.823066711425781 66.73241424560547 C 2.821510314941406 66.73057556152344 2.819854736328125 66.72859954833984 2.81829833984375 66.72676086425781 C 2.81805419921875 66.72647094726562 2.817291259765625 66.72556304931641 2.817047119140625 66.72528076171875 C 2.81536865234375 66.72328186035156 2.813705444335938 66.72130584716797 2.812026977539062 66.71930694580078 C 2.811538696289062 66.71872711181641 2.811500549316406 66.71868133544922 2.811012268066406 66.71810150146484 C 2.809333801269531 66.71610260009766 2.807464599609375 66.71388244628906 2.8057861328125 66.71188354492188 C 2.8055419921875 66.71159362792969 2.805122375488281 66.71109008789062 2.804878234863281 66.71080017089844 C 2.803199768066406 66.70880126953125 2.801368713378906 66.70661926269531 2.799697875976562 66.70462036132812 C 2.799209594726562 66.70404815673828 2.799232482910156 66.70407104492188 2.798751831054688 66.7034912109375 C 2.786491394042969 66.68886566162109 2.77423095703125 66.67416381835938 2.762039184570312 66.65948486328125 C 2.762039184570312 66.65948486328125 2.761482238769531 66.65880584716797 2.761482238769531 66.65880584716797 C 2.759681701660156 66.65664672851562 2.757789611816406 66.65436553955078 2.755996704101562 66.65219879150391 C 2.755760192871094 66.65190887451172 2.755424499511719 66.65150451660156 2.75518798828125 66.65121459960938 C 2.753387451171875 66.6490478515625 2.751808166503906 66.64713287353516 2.750015258789062 66.64496612548828 C 2.749534606933594 66.64438629150391 2.749397277832031 66.64422607421875 2.748916625976562 66.64364624023438 C 2.74725341796875 66.64163208007812 2.7454833984375 66.63949584960938 2.743820190429688 66.63748168945312 C 2.743583679199219 66.63719177246094 2.743247985839844 66.63678741455078 2.743011474609375 66.63649749755859 C 2.741218566894531 66.63433074951172 2.739608764648438 66.63238525390625 2.737823486328125 66.63021087646484 C 2.737342834472656 66.62963104248047 2.737258911132812 66.62953186035156 2.736785888671875 66.62895202636719 C 2.735122680664062 66.62693786621094 2.733497619628906 66.62496185302734 2.731834411621094 66.62294769287109 C 2.731597900390625 66.62265777587891 2.730934143066406 66.62184906005859 2.730697631835938 66.62155914306641 C 2.729034423828125 66.61954498291016 2.72760009765625 66.6177978515625 2.725944519042969 66.61578369140625 C 2.7254638671875 66.61520385742188 2.725006103515625 66.61463928222656 2.724525451660156 66.61405944824219 C 2.722740173339844 66.61189270019531 2.721267700195312 66.61009216308594 2.719482421875 66.60792541503906 C 2.719245910644531 66.60763549804688 2.718963623046875 66.60729217529297 2.718727111816406 66.60700225830078 C 2.716941833496094 66.60482788085938 2.715126037597656 66.60261535644531 2.713348388671875 66.60044097900391 C 2.713111877441406 66.60015106201172 2.712890625 66.59988403320312 2.712654113769531 66.59959411621094 C 2.702468872070312 66.587158203125 2.692619323730469 66.57509613037109 2.682487487792969 66.5626220703125 C 2.6822509765625 66.56232452392578 2.681755065917969 66.56172180175781 2.6815185546875 66.56142425537109 C 2.67987060546875 66.55940246582031 2.678329467773438 66.55751037597656 2.676689147949219 66.55548095703125 C 2.675979614257812 66.55460357666016 2.675628662109375 66.55417633056641 2.674919128417969 66.55329895019531 C 2.673530578613281 66.55158233642578 2.672065734863281 66.54978179931641 2.670677185058594 66.54806518554688 C 2.670204162597656 66.5474853515625 2.669486999511719 66.54659271240234 2.669013977050781 66.54601287841797 C 2.667617797851562 66.54429626464844 2.666168212890625 66.54249572753906 2.664779663085938 66.54077911376953 C 2.664306640625 66.54019927978516 2.663497924804688 66.53919982910156 2.66302490234375 66.53861236572266 C 2.661636352539062 66.53689575195312 2.660087585449219 66.53498077392578 2.658699035644531 66.53325653076172 C 2.658233642578125 66.53267669677734 2.657676696777344 66.531982421875 2.657203674316406 66.53140258789062 C 2.655685424804688 66.52952575683594 2.654304504394531 66.52780151367188 2.652786254882812 66.52592468261719 C 2.652313232421875 66.52534484863281 2.651710510253906 66.52459716796875 2.6512451171875 66.52400970458984 C 2.649726867675781 66.52213287353516 2.648178100585938 66.52021026611328 2.64666748046875 66.51832580566406 C 2.646430969238281 66.51803588867188 2.645599365234375 66.51700592041016 2.645362854003906 66.51670837402344 C 2.643852233886719 66.51483154296875 2.642326354980469 66.51293182373047 2.640815734863281 66.51105499267578 C 2.640342712402344 66.51046752929688 2.639839172363281 66.50984191894531 2.639373779296875 66.50925445556641 C 2.637733459472656 66.50721740722656 2.6363525390625 66.5054931640625 2.634712219238281 66.50345611572266 C 2.634246826171875 66.50286865234375 2.633949279785156 66.50250244140625 2.63348388671875 66.50192260742188 C 2.631851196289062 66.4998779296875 2.630340576171875 66.49800109863281 2.628707885742188 66.49595642089844 C 2.62823486328125 66.49536895751953 2.628036499023438 66.4951171875 2.6275634765625 66.49452972412109 C 2.625808715820312 66.49234008789062 2.623970031738281 66.49004364013672 2.622215270996094 66.48784637451172 C 2.621978759765625 66.48755645751953 2.6219482421875 66.48751831054688 2.621719360351562 66.48722839355469 C 2.613685607910156 66.47718048095703 2.605873107910156 66.46737670898438 2.597877502441406 66.45730590820312 C 2.597640991210938 66.45700836181641 2.597366333007812 66.45665740966797 2.597129821777344 66.45636749267578 C 2.595504760742188 66.45432281494141 2.593696594238281 66.45204162597656 2.592079162597656 66.44999694824219 C 2.591606140136719 66.44940948486328 2.591133117675781 66.44880676269531 2.590667724609375 66.44821929931641 C 2.58917236328125 66.44633483886719 2.587738037109375 66.44452667236328 2.58624267578125 66.44263458251953 C 2.585777282714844 66.44204711914062 2.585105895996094 66.44120025634766 2.584640502929688 66.44061279296875 C 2.583267211914062 66.43887329101562 2.581817626953125 66.43704223632812 2.5804443359375 66.43531036376953 C 2.579978942871094 66.43472290039062 2.579086303710938 66.43358612060547 2.578620910644531 66.43299865722656 C 2.577255249023438 66.43126678466797 2.575889587402344 66.42953491210938 2.574516296386719 66.42779541015625 C 2.573822021484375 66.42691040039062 2.573570251464844 66.42659759521484 2.5728759765625 66.42571258544922 C 2.571380615234375 66.42382049560547 2.570152282714844 66.42226409912109 2.568656921386719 66.42036437988281 C 2.568191528320312 66.41977691650391 2.567459106445312 66.41883850097656 2.566993713378906 66.41825103759766 C 2.565498352050781 66.41635894775391 2.56414794921875 66.41463470458984 2.562652587890625 66.41274261474609 C 2.562187194824219 66.41215515136719 2.561729431152344 66.41156768798828 2.561264038085938 66.41098022460938 C 2.559898376464844 66.40924072265625 2.558258056640625 66.40714263916016 2.556892395019531 66.40541076660156 C 2.556427001953125 66.40481567382812 2.555717468261719 66.40391540527344 2.555259704589844 66.40332794189453 C 2.55389404296875 66.40158843994141 2.552444458007812 66.39974212646484 2.551078796386719 66.39800262451172 C 2.550621032714844 66.39741516113281 2.549911499023438 66.39650726318359 2.549446105957031 66.39591979980469 C 2.547958374023438 66.39402008056641 2.546623229980469 66.39231109619141 2.545135498046875 66.39041137695312 C 2.544670104980469 66.38982391357422 2.544097900390625 66.38908386230469 2.543632507324219 66.38849639892578 C 2.542022705078125 66.38643646240234 2.540290832519531 66.38422393798828 2.538681030273438 66.38216400146484 C 2.5384521484375 66.38186645507812 2.538162231445312 66.38150024414062 2.537933349609375 66.38120269775391 C 2.536201477050781 66.37898254394531 2.53448486328125 66.37678527832031 2.532752990722656 66.37456512451172 C 2.532524108886719 66.37427520751953 2.532257080078125 66.37393188476562 2.532028198242188 66.37363433837891 C 2.528068542480469 66.36856079101562 2.52423095703125 66.36363220214844 2.520278930664062 66.35855102539062 C 2.520050048828125 66.35825347900391 2.520355224609375 66.358642578125 2.520118713378906 66.35834503173828 C 2.518150329589844 66.35581207275391 2.516410827636719 66.35356903076172 2.514434814453125 66.35102844238281 C 2.514205932617188 66.35073089599609 2.514015197753906 66.35048675537109 2.513786315917969 66.35018920898438 C 2.512184143066406 66.34812164306641 2.5103759765625 66.34579467773438 2.508773803710938 66.34372711181641 C 2.508316040039062 66.34313201904297 2.507720947265625 66.34236907958984 2.50726318359375 66.34177398681641 C 2.505783081054688 66.33986663818359 2.50445556640625 66.33815002441406 2.502983093261719 66.33624267578125 C 2.502525329589844 66.33564758300781 2.501838684082031 66.33476257324219 2.501380920410156 66.33416748046875 C 2.500022888183594 66.33242034912109 2.498611450195312 66.33058929443359 2.497261047363281 66.32884216308594 C 2.496803283691406 66.3282470703125 2.495925903320312 66.32711791992188 2.495468139648438 66.32652282714844 C 2.494117736816406 66.32477569580078 2.49285888671875 66.32313537597656 2.491508483886719 66.32138824462891 C 2.490821838378906 66.32049560546875 2.490280151367188 66.31979370117188 2.489593505859375 66.31890106201172 C 2.488365173339844 66.31730651855469 2.487144470214844 66.31572723388672 2.485916137695312 66.31413269042969 C 2.485000610351562 66.31294250488281 2.484611511230469 66.31243896484375 2.483695983886719 66.31124877929688 C 2.482467651367188 66.30965423583984 2.481330871582031 66.30817413330078 2.4801025390625 66.30657958984375 C 2.479415893554688 66.30568695068359 2.478729248046875 66.30478668212891 2.478042602539062 66.30388641357422 C 2.476692199707031 66.30213928222656 2.475578308105469 66.30068969726562 2.474235534667969 66.29893493652344 C 2.473548889160156 66.29804229736328 2.47308349609375 66.29743957519531 2.472404479980469 66.29654693603516 C 2.471054077148438 66.29479217529297 2.469741821289062 66.29306793212891 2.468391418457031 66.29131317138672 C 2.467933654785156 66.29071807861328 2.467086791992188 66.28961181640625 2.466629028320312 66.28901672363281 C 2.465408325195312 66.28741455078125 2.463966369628906 66.28553771972656 2.462745666503906 66.28394317626953 C 2.462066650390625 66.28305053710938 2.4615478515625 66.28237152099609 2.460861206054688 66.28147888183594 C 2.459518432617188 66.27971649169922 2.4581298828125 66.27789306640625 2.456787109375 66.27613830566406 C 2.456329345703125 66.27554321289062 2.455642700195312 66.27464294433594 2.455192565917969 66.2740478515625 C 2.453605651855469 66.27197265625 2.451766967773438 66.26956939697266 2.450187683105469 66.26748657226562 C 2.449958801269531 66.26718902587891 2.449790954589844 66.26697540283203 2.449562072753906 66.26667022705078 C 2.445663452148438 66.26155853271484 2.441871643066406 66.25656890869141 2.437980651855469 66.25144195556641 C 2.437751770019531 66.25114440917969 2.437789916992188 66.25119781494141 2.437568664550781 66.25090026855469 C 2.435737609863281 66.24849700927734 2.434066772460938 66.24629211425781 2.432243347167969 66.24388122558594 C 2.432014465332031 66.24358367919922 2.431617736816406 66.24306488037109 2.431396484375 66.24276733398438 C 2.429817199707031 66.24068450927734 2.428123474121094 66.23845672607422 2.426544189453125 66.23636627197266 C 2.426094055175781 66.23577117919922 2.425643920898438 66.23518371582031 2.425193786621094 66.23458099365234 C 2.423736572265625 66.23265838623047 2.422409057617188 66.23090362548828 2.42095947265625 66.22898101806641 C 2.420280456542969 66.22808074951172 2.419845581054688 66.22750854492188 2.419166564941406 66.22661590576172 C 2.417953491210938 66.22500610351562 2.416557312011719 66.22315979003906 2.41534423828125 66.22154998779297 C 2.414665222167969 66.22064971923828 2.413955688476562 66.21970367431641 2.413276672363281 66.21880340576172 C 2.412063598632812 66.21720123291016 2.410865783691406 66.21560668945312 2.409652709960938 66.21400451660156 C 2.408981323242188 66.21310424804688 2.408378601074219 66.21231079101562 2.407699584960938 66.21141052246094 C 2.406494140625 66.20980072021484 2.405197143554688 66.20808410644531 2.40399169921875 66.20648193359375 C 2.403312683105469 66.20558166503906 2.402580261230469 66.20459747314453 2.401901245117188 66.20369720458984 C 2.40069580078125 66.20208740234375 2.399620056152344 66.20066833496094 2.398414611816406 66.19905853271484 C 2.397743225097656 66.19815826416016 2.396919250488281 66.19705963134766 2.396240234375 66.19615936279297 C 2.395149230957031 66.19471740722656 2.393898010253906 66.19303894042969 2.392814636230469 66.19158935546875 C 2.392135620117188 66.19068908691406 2.391220092773438 66.18946838378906 2.390541076660156 66.18856811523438 C 2.389335632324219 66.18695068359375 2.38812255859375 66.18534088134766 2.386917114257812 66.18373107910156 C 2.386466979980469 66.18312835693359 2.385543823242188 66.18189239501953 2.385093688964844 66.18128967285156 C 2.383773803710938 66.17951965332031 2.382423400878906 66.17771911621094 2.381103515625 66.17594909667969 C 2.380424499511719 66.175048828125 2.380081176757812 66.17458343505859 2.379409790039062 66.17368316650391 C 2.377967834472656 66.17174530029297 2.376678466796875 66.17002868652344 2.375236511230469 66.1680908203125 C 2.374786376953125 66.16748809814453 2.374275207519531 66.16680145263672 2.373825073242188 66.16619873046875 C 2.372383117675781 66.16426849365234 2.370872497558594 66.16223907470703 2.369430541992188 66.16030120849609 C 2.369209289550781 66.16000366210938 2.368370056152344 66.15888214111328 2.368148803710938 66.15857696533203 C 2.364303588867188 66.15341186523438 2.360710144042969 66.14857482910156 2.35687255859375 66.14340972900391 C 2.356422424316406 66.14280700683594 2.356483459472656 66.14288330078125 2.356033325195312 66.14228057861328 C 2.354476928710938 66.14018249511719 2.352798461914062 66.13791656494141 2.351242065429688 66.13581848144531 C 2.350791931152344 66.13520812988281 2.350173950195312 66.13436889648438 2.349723815917969 66.13376617431641 C 2.348411560058594 66.13198852539062 2.347091674804688 66.13020324707031 2.345771789550781 66.12842559814453 C 2.345100402832031 66.12751770019531 2.34442138671875 66.12660217285156 2.343757629394531 66.12569427490234 C 2.342437744140625 66.12391662597656 2.341361999511719 66.12245178222656 2.340042114257812 66.12067413330078 C 2.339378356933594 66.11976623535156 2.338882446289062 66.11909484863281 2.338211059570312 66.11819458007812 C 2.337020874023438 66.1165771484375 2.335777282714844 66.11489105224609 2.334587097167969 66.11327362060547 C 2.333915710449219 66.11236572265625 2.33306884765625 66.11121368408203 2.3323974609375 66.11030578613281 C 2.331321716308594 66.10884857177734 2.330116271972656 66.10720825195312 2.32904052734375 66.10575103759766 C 2.328376770019531 66.10484313964844 2.327316284179688 66.10340881347656 2.326652526855469 66.10250091552734 C 2.325576782226562 66.10104370117188 2.324699401855469 66.09983825683594 2.323623657226562 66.09838104248047 C 2.322731018066406 66.09716796875 2.321968078613281 66.09613037109375 2.321083068847656 66.09491729736328 C 2.32012939453125 66.09362030029297 2.318901062011719 66.09194946289062 2.317947387695312 66.09065246582031 C 2.317062377929688 66.08943939208984 2.316452026367188 66.08860778808594 2.315559387207031 66.08739471435547 C 2.314491271972656 66.08592987060547 2.313583374023438 66.08469390869141 2.312507629394531 66.08322906494141 C 2.311843872070312 66.08232116699219 2.310638427734375 66.08067321777344 2.309974670410156 66.07976531982422 C 2.30902099609375 66.07846832275391 2.30792236328125 66.07695770263672 2.306968688964844 66.07566070556641 C 2.306083679199219 66.07444763183594 2.305274963378906 66.07334899902344 2.304389953613281 66.07213592529297 C 2.303321838378906 66.07067108154297 2.302574157714844 66.06964111328125 2.301506042480469 66.06818389892578 C 2.30084228515625 66.06726837158203 2.300239562988281 66.06644439697266 2.299575805664062 66.06553649902344 L 5.530899047851562 63.7078857421875 Z" stroke="none" fill="#cd3c3e"/>
    </g>
    <g id="Group_2992" data-name="Group 2992" transform="translate(918.507 171.007)">
      <g id="Footer_number_circle" data-name="Footer number circle" transform="translate(194.493 831.993)">
        <g id="qr-code_3_" data-name="qr-code (3)">
          <path id="Path_624" data-name="Path 624" d="M2.979,2.979h9.036V0H0V12.015H2.979Z" fill="#ebebeb"/>
          <path id="Path_625" data-name="Path 625" d="M12.015,400.036H2.979V391H0v12.015H12.015Z" transform="translate(0 -352.173)" fill="#ebebeb"/>
          <path id="Path_626" data-name="Path 626" d="M391,2.979h9.036v9.036h2.979V0H391Z" transform="translate(-352.173)" fill="#ebebeb"/>
          <path id="Path_627" data-name="Path 627" d="M400.036,400.036H391v2.979h12.015V391h-2.979Z" transform="translate(-352.173 -352.173)" fill="#ebebeb"/>
          <path id="Path_628" data-name="Path 628" d="M241,60h2.979v3.078H241Z" transform="translate(-217.069 -54.042)" fill="#ebebeb"/>
          <path id="Path_629" data-name="Path 629" d="M69.036,243.979V241H60v20.853H74.994v-14.9H62.979v-2.979Zm-2.979,8.937h2.979V255.9H66.057Z" transform="translate(-54.042 -217.069)" fill="#ebebeb"/>
          <path id="Path_630" data-name="Path 630" d="M98.926,60H83.931v9.036H80.952V66.057H74.994V60H60V74.994H72.015v5.958h2.979V77.973h2.979v14.9h5.958V89.889H80.952v-14.9H74.994V69.036h2.979v2.979h5.958v2.979H98.926ZM69.036,69.036H66.057V66.057h2.979Zm23.832,0H89.889V66.057h2.979Z" transform="translate(-54.042 -54.042)" fill="#ebebeb"/>
          <path id="Path_631" data-name="Path 631" d="M315.994,241h-2.979v2.979h-3.078V241H301v2.979h5.958v5.958h2.979v-2.979h6.057Z" transform="translate(-271.111 -217.069)" fill="#ebebeb"/>
          <path id="Path_632" data-name="Path 632" d="M301,301h2.979v2.979H301Z" transform="translate(-271.111 -271.111)" fill="#ebebeb"/>
          <path id="Path_633" data-name="Path 633" d="M249.937,393.979H241v2.979h11.916V391h-2.979Z" transform="translate(-217.069 -352.173)" fill="#ebebeb"/>
          <path id="Path_634" data-name="Path 634" d="M370.036,342.916V331h-2.979v2.979H361v2.979h6.057v5.958Z" transform="translate(-325.153 -298.132)" fill="#ebebeb"/>
        </g>
      </g>
    </g>
  </g>
</svg>
