<svg id="qr-code_3_" data-name="qr-code (3)" xmlns="http://www.w3.org/2000/svg" width="49.473" height="49.473" viewBox="0 0 49.473 49.473">
  <path id="Path_624" data-name="Path 624" d="M2.9,2.9h8.793V0H0V11.692H2.9Z"/>
  <path id="Path_625" data-name="Path 625" d="M11.692,399.793H2.9V391H0v11.692H11.692Z" transform="translate(0 -353.219)"/>
  <path id="Path_626" data-name="Path 626" d="M391,2.9h8.793v8.793h2.9V0H391Z" transform="translate(-353.219)"/>
  <path id="Path_627" data-name="Path 627" d="M399.793,399.793H391v2.9h11.692V391h-2.9Z" transform="translate(-353.219 -353.219)"/>
  <path id="Path_628" data-name="Path 628" d="M241,60h2.9v3H241Z" transform="translate(-217.713 -54.202)"/>
  <path id="Path_629" data-name="Path 629" d="M68.793,243.9V241H60v20.292H74.591V246.8H62.9v-2.9Zm-2.9,8.7h2.9v2.9h-2.9Z" transform="translate(-54.202 -217.713)"/>
  <path id="Path_630" data-name="Path 630" d="M97.878,60H83.287v8.793h-2.9v-2.9h-5.8V60H60V74.591H71.692v5.8h2.9v-2.9h2.9V91.984h5.8v-2.9h-2.9V74.591h-5.8v-5.8h2.9v2.9h5.8v2.9H97.878ZM68.793,68.793h-2.9v-2.9h2.9Zm23.191,0h-2.9v-2.9h2.9Z" transform="translate(-54.202 -54.202)"/>
  <path id="Path_631" data-name="Path 631" d="M315.591,241h-2.9v2.9h-3V241H301v2.9h5.8v5.8h2.9v-2.9h5.894Z" transform="translate(-271.915 -217.713)"/>
  <path id="Path_632" data-name="Path 632" d="M301,301h2.9v2.9H301Z" transform="translate(-271.915 -271.915)"/>
  <path id="Path_633" data-name="Path 633" d="M249.7,393.9H241v2.9h11.6V391h-2.9Z" transform="translate(-217.713 -353.219)"/>
  <path id="Path_634" data-name="Path 634" d="M369.793,342.6V331h-2.9v2.9H361v2.9h5.894v5.8Z" transform="translate(-326.117 -299.016)"/>
</svg>
